<svg xmlns="http://www.w3.org/2000/svg" viewBox="0 0 2071.59 929.7"><defs><style>.cls-1{fill:#09afdc;}.cls-2{fill:#00a3c9;opacity:0.49;}.cls-3{fill:#fff;}.cls-4{fill:#1bb0d8;}</style></defs><g id="Layer_2" data-name="Layer 2"><g id="Layer_1-2" data-name="Layer 1"><path class="cls-1" d="M1295.28,274.15c-62.18-67.68-88-167.51-170.42-217.43-61.09-37-132.59-44.25-199-17.34C883.44,56.56,845.09,84.24,816.44,120c-13.76,17.18-27.29,37.49-48.71,42.57-23.78,5.64-47.56-10.34-63-29.31C673,94.19,649.66,49.69,601.19,28,382.13-69.9,120.52,105,27.54,302.41a337.78,337.78,0,0,0-14.3,35C-9,402.65-4.57,474.79,37,531.46c19.21,26.2,45,51.08,73.88,66.08,33.53,17.44,73,25,100.76,52.31,30.44,29.94,37.23,74.1,51.14,112.63,23.93,66.28,82,130.16,148.23,156,35.37,13.8,73.62,9.61,107.21-7.05C555.84,892.76,577.37,851,616,836.69c20.25-7.47,44.18-6.27,62.08,5.79,30.72,20.71,44.22,59.28,76.87,77.58,26.92,15.09,61.5,11.32,88.62-3.41s47.82-38.95,65.18-64.46C953,787.09,989.79,721.93,1009,644.83c19.43-78.16,13.87-162.57,61.55-231.73,10.92-15.84,24.65-30.43,42.23-38.26,35.43-15.79,75-.66,110.39,7,43.09,9.35,85.44,21.61,125.18,41a11.92,11.92,0,0,0,17.1-10.31c1.7-30.34,23.68-61,23.68-61,2.46-9.71-32.43-30.36-40.83-35C1327.57,305.08,1310.36,290.56,1295.28,274.15Z"/><path class="cls-1" d="M2048.69,583.18c-70.48-38-140.44-76.95-210.73-115.32-22-12-43.9-24.27-66.67-34.64-36.79-16.77-76.12-25.14-115.89-31.37-23.31-3.65-46.71-6.56-69.42-13.46-58.55-17.82-113.94-43.09-168.29-70.9-5.73-2.92-10.56-6.35-13.4-12.29-1.88-3.91-5-5.89-9.59-5.3a4.33,4.33,0,0,1-3-.79c-3.63-3.16-6.67-7.2-10.72-9.58a182.08,182.08,0,0,0-24.87-12.44c-6.95-2.73-13.63-.37-18.86,5a126.59,126.59,0,0,0-10.06,11.42c-13.69,18.12-24.85,37.81-34.44,58.32a297.23,297.23,0,0,0-12.37,32c-4.88,14.56,2.4,22,11.18,27.31,7.38,4.47,15.4,7.93,23.27,11.55,2.66,1.23,5.72,1.57,9.93,2.66,1.73,5.43,6.67,6.54,12.85,6.36a21.24,21.24,0,0,1,10.68,2.35c41.9,23.84,82.51,49.7,120.85,79,21.37,16.3,42.35,33.08,60.3,53.3,14.34,16.18,28.47,32.57,43.37,48.21,27.1,28.47,56.77,53.9,91.43,72.95q128,70.31,256,140.5c10.71,5.89,21.32,5.23,32.08.42,17.87-8,31.09-21.63,43.46-36.16,28.07-32.93,48.56-70.34,63.63-110.69,7.12-19,12.54-38.71,12.12-59.38C2071.22,605.05,2065.11,592,2048.69,583.18Z"/><path class="cls-2" d="M1295.2,371c32.32,15.7,62,38.4,94.32,52.85,34.28,15.32,79.68,34.65,107.37,60.09,30.46,28,57.67,59.29,87.93,87.48,59.6,55.51,113.31,89.21,183.71,128,49.7,27.38,99.28,55.14,149.68,81.23,4.79,2.48,9.55,5.14,14.52,7.25,17.42,7.38,49.93-15,59.53-24.11s21.67,1.06,17.27,6.91-61.14,65.12-83.86,56.51S1650.27,673.79,1636,662.81c-88.06-67.88-97.23-97.44-120-118.33s-46.62-43-86.27-66.79-91.25-49.76-98.32-54.4-41.32-12.26-44.65-24.77S1295.2,371,1295.2,371Z"/><path class="cls-3" d="M1321.57,429c-4.21-1.08-7.27-1.43-9.93-2.65-7.87-3.62-15.89-7.09-23.28-11.55-8.78-5.31-16-12.76-11.18-27.31a297.29,297.29,0,0,1,12.38-32c9.59-20.52,20.74-40.21,34.43-58.32a124,124,0,0,1,10.07-11.43c5.22-5.4,11.91-7.77,18.85-5a183.29,183.29,0,0,1,24.88,12.43c4,2.39,7.09,6.43,10.72,9.58a4.2,4.2,0,0,0,3,.79c4.55-.59,7.7,1.4,9.59,5.3,2.83,5.94,7.67,9.38,13.4,12.3,54.34,27.8,109.73,53.07,168.29,70.89,22.7,6.91,46.11,9.82,69.41,13.47,39.78,6.22,79.1,14.59,115.9,31.37,22.76,10.37,44.69,22.63,66.67,34.64,70.29,38.37,140.24,77.34,210.73,115.32,16.41,8.85,22.52,21.86,22.87,39,.41,20.68-5,40.35-12.13,59.38-15.07,40.35-35.56,77.76-63.62,110.69-12.38,14.53-25.59,28.17-43.46,36.16-10.76,4.81-21.37,5.47-32.09-.41q-128-70.3-256-140.51c-34.66-19-64.33-44.48-91.42-72.94-14.9-15.65-29-32-43.37-48.21-18-20.22-38.94-37-60.3-53.31-38.35-29.26-79-55.11-120.85-79a21.26,21.26,0,0,0-10.68-2.34c-6.18.17-11.12-.93-12.85-6.37m461.19,318.37.65-1.16q69.06,37.88,138.07,75.81c7.41,4.09,14.64,4,22.16.86,12.67-5.32,22.88-14,32-23.94,36.55-39.62,61.62-85.76,76.88-137.27,4.33-14.65,6.94-29.69,4.08-45.12-1.5-8.17-5.31-14.44-13-18.51-17.37-9.19-34.54-18.75-51.78-28.22-62.34-34.23-125.06-67.83-186.89-103-48-27.23-99.44-42.58-153.47-50.88-23-3.53-46.09-6.27-68.51-13-63.51-19-123.47-46.34-181.86-77.35a15.13,15.13,0,0,1-5.43-5.35c-4-6.59-4.78-6.92-11-2.21a14.12,14.12,0,0,0-3.7,4.42q-24.09,43.71-47.91,87.54c-1.59,3-1.73,6.78-2.2,10.25s1.41,4.42,4.76,4.46c3.62.06,7.8,0,10.79,1.65,47.45,26.72,93.22,56.05,136.09,89.73,20.49,16.11,40.22,33.05,57.19,53,10.93,12.85,22.12,25.49,33.69,37.77,27.3,29,57,55,92,74.62ZM1347.58,362.27s18.33-35.17,28.08-52.41c1.64-2.89,1.18-4.88-1.58-6.57-5-3.07-9.81-6.55-15-9.25-11.44-6-15-5.89-22.51,4.67-11.14,15.72-21.47,32.09-31.09,48.79-8.16,14.17-15.22,29-18.8,45.21-.93,4.21-.05,7.78,3.42,10,6.9,4.33,14.11,8.11,21.14,12.22,4,2.36,6.37,1.1,8.53-2.84,9.15-16.67,18.53-33.19,27.83-49.77"/><path class="cls-3" d="M1741.57,681.18c-7.52-2.63-14.81-5.48-22.31-7.71-4.56-1.36-6.66-4-7.52-8.53-3.46-17.88-.9-35.31,4.32-52.37,11-35.87,29.36-67.26,58.36-91.51,7.64-6.38,17.23-10.47,26-15.44,3.19-1.81,6.14-1,9,1.42,6.27,5.21,12.76,10.13,19.83,15.69,2.68-4.77,5.07-9,7.39-13.19,4-7.27,6.5-7.84,12.9-2.62q72.5,59.19,145,118.46c4.79,3.9,5.15,5.81,2.1,11.37q-34.14,62.28-68.33,124.51c-3.22,5.86-4.81,6.41-11.08,4.34q-88.47-29.22-176.93-58.41c-8.54-2.82-9.36-4.84-5-12.79,1.94-3.61,3.9-7.21,5.82-10.82a11.76,11.76,0,0,0,.47-2.4m3.84,16.43c3.14,1.1,5.24,1.89,7.38,2.59l48,15.85q56.7,18.71,113.37,37.46c3.86,1.28,6,1,8.15-3q30.84-56.75,62.15-113.27c1.91-3.44,1.31-5.38-1.65-7.79q-63-51.34-125.91-102.86c-3.77-3.08-7.61-6.06-12-9.58-2.92,5.2-5.49,9.86-8.14,14.49-3.07,5.39-5.6,6.06-10.62,2.27-6.66-5-13.19-10.24-19.62-15.55-2.35-2-4.58-2.45-7.13-.9-5.58,3.37-11.65,6.21-16.61,10.37-31.37,26.32-50.62,60.11-59.36,99.83-2,9.15-1.84,18.82-2.3,28.27-.23,4.72,1.53,8.22,6.95,9.67,7.41,2,14.61,4.83,21.85,7.42,5.5,2,6.56,4.64,3.85,9.75-2.53,4.75-5.26,9.42-8.39,15"/><path class="cls-2" d="M289.48,660.52c3.94,7.34,7.16,15.18,10.54,22.79a411,411,0,0,0,81.71,120.44c15,15.37,32.25,30.06,53.22,34.86,22.09,5,45.31-1.67,65.55-11.86s38.6-23.81,58.86-34c37.68-18.91,83-25,122.53-10.43,26.45,9.74,48.5,27.81,68.46,47.27,14,13.71,32.31,41.63,54.71,40,11.39-.85,20.41-9.63,28.08-18.09C920.91,754.68,969.8,630,996.58,503.57c15.91-75.12,52.83-196.06,153.54-174.27,104.49,22.62,133.42,35.63,133.42,35.63l-7.89,22.37s-73.31-19-134.6-26c-65.24-7.43-108,99.95-117.94,151.56-10.21,52.87-14.83,106-29.65,157.93s-42.66,99.92-70.52,146c-32.36,53.52-90.77,132.85-160.83,94-43-23.85-53.43-84.72-106.46-91.94-37.45-5.1-71.42,20.75-99.7,45.83s-59.91,52.6-97.7,51.79c-54.12-1.17-111.43-45.6-142.15-87.72C277.18,775.38,265.43,708,231.18,652c-1.93-3.15-4-6.59-3.53-10.25s3.55-6.64,6.84-8.49c13.61-7.65,31.53-1.54,42.47,9.59A75.37,75.37,0,0,1,289.48,660.52Z"/><path class="cls-2" d="M15.06,439.28c-20.21-35.22-2-153.89,125-277.63C222.8,81.1,281.68,45.86,366.75,21.31c95.55-27.57,223-13.56,291.49,65,42.38,48.57,94.7,137.86,153,54,49.1-70.66,150.67-122.19,239.1-100.88,54.45,13.12,88.37,36.72,123.23,80.56,49.65,62.44,83.51,127.71,142.47,181.44l-6.81,16.69c-2.11,5.18-97.27-84-105.16-92.9-31-35.09-62.35-72.78-99.41-101.65-23.94-18.66-54.94-31.68-84.48-24.69-33,7.83-55.19,37.62-77.31,63.35-48.68,56.61-115.18,97.5-191.78,77.16-45.43-12.06-86-36.15-125-61.65-35.87-23.43-68.14-44.52-112.05-49-33.48-3.44-67.28.65-100.43,6.49-63.74,11.22-127.43,29.43-181.53,65a320,320,0,0,0-91.23,91.52c-25.09,38.15-37.92,81.86-59.6,121.75C67.24,439.14,39.11,481.19,15.06,439.28Z"/><path class="cls-4" d="M70.8,320a7.25,7.25,0,0,1-3.94-5.76c-1.48-15,5-35.46,18.81-59.25s34-49.3,58.25-73.56C178,147.35,250.39,86.05,352.43,58.2a7.25,7.25,0,1,1,3.82,14c-98.81,27-169,86.43-202.09,119.48-23.39,23.38-42.74,47.79-55.95,70.58C81.92,290.36,80.61,306,81.28,312.8a7.23,7.23,0,0,1-6.5,7.92A7.15,7.15,0,0,1,70.8,320Z"/><path class="cls-4" d="M390.73,874q-5.12-3-10.12-6.31c-21.22-14.24-40.71-33.73-57.93-57.92-29.12-40.92-41.56-80.76-42.07-82.44a7.25,7.25,0,1,1,13.85-4.26c.18.58,12.47,39.68,40.26,78.62,16.19,22.68,34.41,40.88,54.15,54.08,24.42,16.34,51.33,25.07,80,25.94a7.25,7.25,0,0,1-.44,14.49A163.34,163.34,0,0,1,390.73,874Z"/><path class="cls-4" d="M856.6,866.6a7.08,7.08,0,0,1-1.11-.8,7.24,7.24,0,0,1-.75-10.22l5.64-6.52c48.38-55.95,75-86.77,100.63-161.46a7.25,7.25,0,0,1,13.71,4.7c-12.52,36.54-25.91,64.63-43.43,91.09-16.44,24.85-35.64,47-59.95,75.15l-5.63,6.52A7.26,7.26,0,0,1,856.6,866.6Z"/><path class="cls-4" d="M896,107.34a7.26,7.26,0,0,1-1.71-11.57c15.64-15.45,37.11-28.67,60.45-37.23,24.15-8.86,48.92-12.47,71.64-10.46,26.5,2.35,53.63,13.78,83,34.92,25.15,18.15,47.56,40.37,66.16,59.71a7.25,7.25,0,0,1-10.45,10c-18.15-18.88-40-40.53-64.19-58-27.14-19.58-51.92-30.13-75.75-32.24-20.61-1.83-43.21,1.5-65.37,9.63-21.43,7.85-41.06,19.91-55.26,33.94A7.25,7.25,0,0,1,896,107.34Z"/></g></g></svg>