<?xml version="1.0" encoding="UTF-8"?>
<svg width="678px" height="388px" viewBox="0 0 678 388" version="1.1" xmlns="http://www.w3.org/2000/svg" xmlns:xlink="http://www.w3.org/1999/xlink">
    <title>Group 4</title>
    <defs>
        <polygon id="path-1" points="0.135481442 0.171073217 79.9995333 0.171073217 79.9995333 30.0848253 0.135481442 30.0848253"></polygon>
    </defs>
    <g id="Mockups-D" stroke="none" stroke-width="1" fill="none" fill-rule="evenodd">
        <g id="Home_PixelPerfect" transform="translate(-622.000000, -334.000000)">
            <g id="Group-4" transform="translate(622.138298, 334.500000)">
                <path d="M53.0305851,107.656666 C66.8312832,107.656666 81.0246842,100.980718 81.0246842,82.130984 C81.0246842,73.9964262 75.4707447,65.9740691 68.7947972,62.9446476 C72.4413231,60.3640293 74.1243351,55.0905918 74.1243351,50.9391622 C74.1243351,36.5774601 61.5578457,30.0137134 49.8328624,30.0137134 L24.2510805,30.0137134 C23.4095745,30.0137134 22.7363697,30.7430186 22.7363697,31.640625 L22.7363697,106.029754 C22.7363697,106.87126 23.4095745,107.656666 24.2510805,107.656666 L53.0305851,107.656666 Z M49.9450632,58.3444149 L41.9788065,58.3444149 L41.9788065,47.5170379 L49.9450632,47.5170379 C52.8622839,47.5170379 55.2746011,49.9293551 55.2746011,52.9587766 C55.2746011,55.9320977 52.8622839,58.3444149 49.9450632,58.3444149 Z M51.7402759,88.9752327 L41.9788065,88.9752327 L41.9788065,74.669631 L51.7402759,74.669631 C56.396609,74.669631 59.9309342,77.3063497 59.9309342,81.850482 C59.9309342,86.338514 56.396609,88.9752327 51.7402759,88.9752327 Z M109.753025,105.861453 L109.753025,81.1772773 L120.019398,81.1772773 L132.698088,106.478557 C133.499523,108.081426 138.168195,108.157753 143.021022,108.161569 L144.354142,108.161569 C148.580529,108.157396 152.66983,108.069768 152.66983,106.141955 C152.66983,105.861453 152.55763,105.52485 152.389328,105.188248 L137.354422,76.9697473 C144.086469,72.9305186 148.686702,65.3008644 148.686702,55.5954953 C148.686702,40.0556848 137.242221,30.0137134 124.283029,30.0137134 L92.0252992,30.0137134 C91.1837932,30.0137134 90.5105884,30.7430186 90.5105884,31.640625 L90.5105884,105.861453 C90.5105884,108.056686 95.0740483,108.158096 99.7892345,108.161569 L100.103757,108.161569 C104.928391,108.161569 109.753025,108.105469 109.753025,105.861453 Z M121.421908,62.6641456 L109.753025,62.6641456 L109.753025,48.6390459 L121.421908,48.6390459 C125.292836,48.6390459 128.378358,51.7806682 128.378358,55.6515957 C128.378358,59.5225233 125.292836,62.6641456 121.421908,62.6641456 Z M179.883461,105.805352 L179.883461,31.7528258 C179.883461,29.6063758 175.520568,29.4617237 170.918887,29.4532028 L169.654694,29.4532028 C165.003917,29.4617237 160.641024,29.6063758 160.641024,31.7528258 L160.641024,105.805352 C160.641024,108.055466 165.204484,108.15807 169.972191,108.161569 L170.290293,108.161569 C175.114927,108.161569 179.883461,108.105469 179.883461,105.805352 Z M260.504671,108.890874 C261.907181,108.890874 263.19749,108.890874 263.19749,107.151762 L263.19749,31.7528258 C263.19749,29.5995254 259.018277,29.4620807 254.480248,29.4533076 L252.606294,29.4533475 C248.121886,29.4624925 243.955053,29.602717 243.955053,31.7528258 L243.955053,71.303607 L201.655352,29.4527094 C200.869947,28.7720246 199.644714,28.7266456 198.39016,28.7234043 L198.121027,28.7234043 C196.718517,28.7234043 195.372108,28.7234043 195.372108,30.4064162 L195.372108,105.861453 C195.372108,108.061564 199.735001,108.157221 204.336681,108.16138 L205.580519,108.161388 C210.187108,108.157303 214.558444,108.061305 214.558444,105.805352 L214.558444,67.2082779 L256.970346,108.161569 C257.755751,108.890874 259.158261,108.890874 260.504671,108.890874 Z M313.524485,108.778674 C338.20866,108.778674 350.326346,92.2290559 350.326346,69.4522939 L350.325292,69.0707536 C350.31276,67.1015557 350.161551,64.2910572 348.531134,64.2910572 L313.748886,64.2910572 C311.555752,64.2910572 311.402743,68.014285 311.393254,71.8620553 L311.393254,72.9966442 C311.402743,76.8930454 311.555752,80.6162733 313.748886,80.6162733 L328.447191,80.6162733 C327.044681,86.5629156 322.220047,89.8728391 313.412284,89.9289395 C302.865409,89.8167387 293.552743,80.9528757 293.552743,68.7790891 C293.552743,56.6053025 302.97761,48.1902427 313.524485,48.1902427 C319.471127,48.1902427 325.866572,49.9854555 330.803408,53.5197806 C331.14001,53.7441822 331.420512,53.8002826 331.757114,53.8002826 C333.776729,53.8002826 335.908544,49.9854555 337.591556,45.8340259 C338.545263,43.4778092 339.667271,40.1678856 339.667271,38.0360705 C339.667271,37.1384641 339.442869,36.4652593 338.994066,36.1286569 C331.757114,30.9674202 323.790858,28.8356051 313.300083,28.8356051 C289.794016,28.8356051 272.683394,45.9462267 272.683394,68.7790891 C272.683394,91.6119515 288.728108,108.778674 313.524485,108.778674 Z M414.010173,105.805352 L414.010173,77.5307513 L439.030951,32.3699302 C439.199252,32.0333278 439.311453,31.6967254 439.311453,31.4162234 C439.311453,29.4844184 434.999888,29.4004268 430.451767,29.396609 L429.10382,29.396609 C424.020849,29.4003182 419.079609,29.4782096 418.329904,31.1918218 L404.417005,57.3907081 L390.504106,31.2479222 C389.6473,29.4807596 384.752308,29.4004341 379.673762,29.396609 L378.947424,29.396609 C374.17889,29.396609 369.410356,29.4527094 369.410356,31.4162234 C369.410356,31.6967254 369.522557,32.0333278 369.690858,32.3699302 L394.767736,77.4746509 L394.767736,105.861453 C394.767736,108.061564 399.130629,108.157221 403.73231,108.161388 L404.976443,108.161388 C409.587409,108.157303 414.010173,108.061305 414.010173,105.805352 Z M475.108444,108.834774 C497.380303,108.834774 515.444631,90.9387467 515.444631,68.8351895 C515.444631,46.7877327 497.380303,28.8917055 475.108444,28.8917055 C452.836586,28.8917055 434.772257,46.7877327 434.772257,68.8351895 C434.772257,90.9387467 452.836586,108.834774 475.108444,108.834774 Z M475.108444,89.1996343 C464.000565,89.1996343 455.585505,80.2235705 455.585505,68.8351895 C455.585505,57.3907081 464.000565,48.5268451 475.108444,48.5268451 C486.216323,48.5268451 494.575283,57.3907081 494.575283,68.8351895 C494.575283,80.2235705 486.216323,89.1996343 475.108444,89.1996343 Z M556.234558,108.778674 C576.037999,108.778674 587.931283,97.2780918 587.931283,83.533494 L587.931283,31.8089262 C587.931283,29.6031063 583.702903,29.4623092 579.204626,29.4533076 L577.368818,29.4533076 C572.910293,29.4620807 568.632746,29.5995254 568.632746,31.7528258 L568.632746,77.8673537 C568.632746,85.3848072 562.910505,89.1435339 556.234558,89.1435339 C548.829305,89.1435339 543.83637,84.8799036 543.83637,77.8673537 L543.83637,31.8089262 C543.83637,29.6031063 539.607989,29.4623092 535.109713,29.4533076 L533.254765,29.4533076 C528.809788,29.4624925 524.593933,29.602717 524.593933,31.7528258 L524.593933,83.533494 C524.593933,96.7731882 535.757912,108.778674 556.234558,108.778674 Z M621.372058,105.861453 L621.372058,81.1772773 L631.638431,81.1772773 L644.317121,106.478557 C645.118555,108.081426 649.787228,108.157753 654.640055,108.161569 L655.973175,108.161569 C660.199561,108.157396 664.288863,108.069768 664.288863,106.141955 C664.288863,105.861453 664.176662,105.52485 664.008361,105.188248 L648.973454,76.9697473 C655.705502,72.9305186 660.305735,65.3008644 660.305735,55.5954953 C660.305735,40.0556848 648.861253,30.0137134 635.902061,30.0137134 L603.644332,30.0137134 C602.802826,30.0137134 602.129621,30.7430186 602.129621,31.640625 L602.129621,105.861453 C602.129621,108.056686 606.693081,108.158096 611.408267,108.161569 L611.722789,108.161569 C616.547424,108.161569 621.372058,108.105469 621.372058,105.861453 Z M633.040941,62.6641456 L621.372058,62.6641456 L621.372058,48.6390459 L633.040941,48.6390459 C636.911868,48.6390459 639.99739,51.7806682 639.99739,55.6515957 C639.99739,59.5225233 636.911868,62.6641456 633.040941,62.6641456 Z M33.9003491,215.459192 L37.9395778,205.641622 L66.6068816,205.641622 L70.59001,215.459192 C71.3031084,217.214511 76.4678912,217.307153 81.7840432,217.310505 L82.1466922,217.310505 C86.9713265,217.310505 91.8520612,217.198305 91.8520612,215.17869 C91.8520612,214.954289 91.7959608,214.673787 91.6276596,214.393285 L55.5551031,138.994348 C55.0236256,137.931393 53.7872412,137.875448 52.4660559,137.87234 L52.2451795,137.87234 C50.8426695,137.87234 49.4401596,137.87234 48.8791556,138.994348 L12.8626995,214.337184 C12.6943983,214.673787 12.6382979,214.954289 12.6382979,215.17869 C12.6382979,217.217818 17.0525191,217.306475 21.6586629,217.310505 L22.2875665,217.310505 C27.7293052,217.310505 33.1149435,217.254405 33.9003491,215.459192 Z M59.8748338,190.045711 L44.8399269,190.045711 L52.3573803,172.542387 L59.8748338,190.045711 Z M115.924069,214.954289 L115.924069,190.326213 L130.454072,190.326213 C143.413265,190.326213 154.857746,180.340342 154.857746,164.744432 C154.857746,149.204621 143.413265,139.16265 130.454072,139.16265 L98.1963431,139.16265 C97.3548371,139.16265 96.6816323,139.891955 96.6816323,140.789561 L96.6816323,215.010389 C96.6816323,217.212628 101.052968,217.30634 105.708797,217.310328 L106.946144,217.310328 C111.552733,217.306239 115.924069,217.210241 115.924069,214.954289 Z M127.592952,171.813082 L115.924069,171.813082 L115.924069,157.787982 L127.592952,157.787982 C131.46388,157.787982 134.549402,160.929604 134.549402,164.800532 C134.549402,168.671459 131.46388,171.813082 127.592952,171.813082 Z M182.744581,214.954289 L182.744581,190.326213 L197.274584,190.326213 C210.233777,190.326213 221.678258,180.340342 221.678258,164.744432 C221.678258,149.204621 210.233777,139.16265 197.274584,139.16265 L165.016855,139.16265 C164.175349,139.16265 163.502144,139.891955 163.502144,140.789561 L163.502144,215.010389 C163.502144,217.212628 167.87348,217.30634 172.529309,217.310328 L173.766656,217.310328 C178.373245,217.306239 182.744581,217.210241 182.744581,214.954289 Z M194.413464,171.813082 L182.744581,171.813082 L182.744581,157.787982 L194.413464,157.787982 C198.284392,157.787982 201.369914,160.929604 201.369914,164.800532 C201.369914,168.671459 198.284392,171.813082 194.413464,171.813082 Z M282.94483,216.805602 C285.252264,216.805602 285.403916,212.494037 285.412741,208.093206 L285.412741,206.878967 C285.40381,202.384406 285.249825,198.124169 282.88873,198.124169 L249.508993,198.180269 L249.508993,184.940575 L277.166489,184.940575 C279.359624,184.940575 279.512633,181.217347 279.522122,177.320946 L279.522122,176.186357 C279.512633,172.338587 279.359624,168.615359 277.166489,168.615359 L249.508993,168.615359 L249.508993,157.787982 L282.94483,157.787982 C285.252264,157.787982 285.403916,153.527745 285.412741,149.033184 L285.412741,147.812559 C285.403916,143.371558 285.252264,139.16265 282.94483,139.16265 L231.781267,139.21875 C230.939761,139.21875 230.266556,139.891955 230.266556,140.789561 L230.266556,215.17869 C230.266556,216.020196 230.939761,216.805602 231.781267,216.805602 L282.94483,216.805602 Z M334.898737,214.954289 L334.898737,157.787982 L355.487583,157.787982 C357.737697,157.787982 357.786612,153.331898 357.787699,148.726421 L357.787699,148.419215 C357.787699,143.762882 357.787699,139.16265 355.487583,139.16265 L295.123554,139.16265 C292.973445,139.16265 292.833221,143.182418 292.82406,147.51017 L292.82406,149.339221 C292.832982,153.719192 292.969786,157.787982 295.067453,157.787982 L315.6563,157.787982 L315.6563,215.010389 C315.6563,217.2105 320.070521,217.306157 324.627568,217.310324 L325.865007,217.310324 C330.475973,217.306239 334.898737,217.210241 334.898737,214.954289 Z M385.394033,214.954289 L385.394033,140.901762 C385.394033,138.755312 381.03114,138.61066 376.429459,138.602139 L375.165266,138.602139 C370.514489,138.61066 366.151596,138.755312 366.151596,140.901762 L366.151596,214.954289 C366.151596,217.204402 370.715056,217.307006 375.482762,217.310505 L375.800864,217.310505 C380.625499,217.310505 385.394033,217.254405 385.394033,214.954289 Z M435.664927,214.954289 L435.664927,157.787982 L456.253773,157.787982 C458.55389,157.787982 458.55389,153.131649 458.55389,148.419215 C458.55389,143.762882 458.55389,139.16265 456.253773,139.16265 L395.889744,139.16265 C393.739635,139.16265 393.599411,143.182418 393.59025,147.51017 L393.59025,149.339221 C393.599172,153.719192 393.735977,157.787982 395.833644,157.787982 L416.42249,157.787982 L416.42249,215.010389 C416.42249,217.2105 420.836711,217.306157 425.393759,217.310324 L426.631197,217.310324 C431.242163,217.306239 435.664927,217.210241 435.664927,214.954289 Z M519.596061,216.805602 C521.903494,216.805602 522.055146,212.494037 522.063971,208.093206 L522.063971,206.878967 C522.05504,202.384406 521.901055,198.124169 519.53996,198.124169 L486.160223,198.180269 L486.160223,184.940575 L513.817719,184.940575 C516.010854,184.940575 516.163863,181.217347 516.173352,177.320946 L516.173352,176.186357 C516.163863,172.338587 516.010854,168.615359 513.817719,168.615359 L486.160223,168.615359 L486.160223,157.787982 L519.596061,157.787982 C521.903494,157.787982 522.055146,153.527745 522.063971,149.033184 L522.063971,147.812559 C522.055146,143.371558 521.903494,139.16265 519.596061,139.16265 L468.432497,139.21875 C467.590991,139.21875 466.917786,139.891955 466.917786,140.789561 L466.917786,215.17869 C466.917786,216.020196 467.590991,216.805602 468.432497,216.805602 L519.596061,216.805602 Z M42.0349069,324.103225 L42.0349069,298.914146 L69.6363032,298.914146 C71.9377242,298.914146 72.044767,295.007082 72.0485011,291.009156 L72.0486203,290.723487 C72.0486203,286.684259 71.9925199,282.58893 69.6363032,282.58893 L42.0349069,282.58893 L42.0349069,266.936918 L75.4146443,266.936918 C77.8294006,266.936918 77.935583,262.480834 77.9391622,257.875357 L77.9391622,257.568152 C77.9391622,252.967919 77.8830618,248.311586 75.4146443,248.311586 L24.3071809,248.311586 C23.4095745,248.311586 22.7924701,249.040891 22.7924701,249.938497 L22.7924701,324.159325 C22.7924701,326.354558 27.35593,326.455968 32.0711162,326.459441 L32.3856383,326.459441 C37.2102726,326.459441 42.0349069,326.403341 42.0349069,324.103225 Z M119.009591,327.132646 C141.281449,327.132646 159.345778,309.236619 159.345778,287.133062 C159.345778,265.085605 141.281449,247.189578 119.009591,247.189578 C96.7377327,247.189578 78.6734043,265.085605 78.6734043,287.133062 C78.6734043,309.236619 96.7377327,327.132646 119.009591,327.132646 Z M119.009591,307.497507 C107.901712,307.497507 99.4866523,298.521443 99.4866523,287.133062 C99.4866523,275.68858 107.901712,266.824717 119.009591,266.824717 C130.11747,266.824717 138.47643,275.68858 138.47643,287.133062 C138.47643,298.521443 130.11747,307.497507 119.009591,307.497507 Z M188.691223,324.159325 L188.691223,299.47515 L198.957596,299.47515 L211.636287,324.77643 C212.437721,326.379298 217.106393,326.455625 221.95922,326.459441 L223.29234,326.459441 C227.518727,326.455269 231.608029,326.367641 231.608029,324.439827 C231.608029,324.159325 231.495828,323.822723 231.327527,323.48612 L216.29262,295.26762 C223.024668,291.228391 227.6249,283.598737 227.6249,273.893368 C227.6249,258.353557 216.180419,248.311586 203.221227,248.311586 L170.963497,248.311586 C170.121991,248.311586 169.448787,249.040891 169.448787,249.938497 L169.448787,324.159325 C169.448787,326.354558 174.012246,326.455968 178.727433,326.459441 L179.041955,326.459441 C183.866589,326.459441 188.691223,326.403341 188.691223,324.159325 Z M200.360106,280.962018 L188.691223,280.962018 L188.691223,266.936918 L200.360106,266.936918 C204.231034,266.936918 207.316556,270.078541 207.316556,273.949468 C207.316556,277.820396 204.231034,280.962018 200.360106,280.962018 Z M273.076097,324.327626 L280.930153,287.862367 L300.116489,324.944731 C300.697293,325.947938 301.775042,326.00695 302.928794,326.010421 L303.145911,326.010638 C304.324019,326.010638 305.502128,326.010638 306.063132,324.944731 L325.361669,287.862367 L333.215725,324.327626 C333.686968,326.2126 338.214395,326.338265 343.057846,326.346657 L345.042613,326.346657 C349.639224,326.338098 353.916772,326.204006 353.916772,324.103225 C353.916772,323.934924 353.916772,323.822723 353.860672,323.654422 L335.964644,248.311586 C335.628042,246.965176 334.281632,246.909076 332.823022,246.909076 L332.356596,246.910461 C331.118539,246.921543 329.949435,247.021277 329.400898,247.918883 L303.145911,294.313913 L276.890924,247.918883 C276.217719,246.909076 274.87131,246.909076 273.412699,246.909076 C272.010189,246.909076 270.60768,246.909076 270.271077,248.311586 L252.37505,323.654422 C252.318949,323.822723 252.318949,323.934924 252.318949,324.103225 C252.318949,326.204006 256.596497,326.338098 261.193108,326.346657 L263.177892,326.346657 C268.021576,326.338265 272.552493,326.2126 273.076097,324.327626 Z M395.940908,327.132646 C418.212766,327.132646 436.277094,309.236619 436.277094,287.133062 C436.277094,265.085605 418.212766,247.189578 395.940908,247.189578 C373.669049,247.189578 355.604721,265.085605 355.604721,287.133062 C355.604721,309.236619 373.669049,327.132646 395.940908,327.132646 Z M395.940908,307.497507 C384.833029,307.497507 376.417969,298.521443 376.417969,287.133062 C376.417969,275.68858 384.833029,266.824717 395.940908,266.824717 C407.048787,266.824717 415.407746,275.68858 415.407746,287.133062 C415.407746,298.521443 407.048787,307.497507 395.940908,307.497507 Z M465.62254,324.159325 L465.62254,299.47515 L475.888913,299.47515 L488.567603,324.77643 C489.369037,326.379298 494.03771,326.455625 498.890537,326.459441 L500.223657,326.459441 C504.450043,326.455269 508.539345,326.367641 508.539345,324.439827 C508.539345,324.159325 508.427144,323.822723 508.258843,323.48612 L493.223936,295.26762 C499.955984,291.228391 504.556217,283.598737 504.556217,273.893368 C504.556217,258.353557 493.111735,248.311586 480.152543,248.311586 L447.894814,248.311586 C447.053308,248.311586 446.380103,249.040891 446.380103,249.938497 L446.380103,324.159325 C446.380103,326.354558 450.943563,326.455968 455.658749,326.459441 L455.973271,326.459441 C460.797906,326.459441 465.62254,326.403341 465.62254,324.159325 Z M477.291423,280.962018 L465.62254,280.962018 L465.62254,266.936918 L477.291423,266.936918 C481.16235,266.936918 484.247872,270.078541 484.247872,273.949468 C484.247872,277.820396 481.16235,280.962018 477.291423,280.962018 Z M569.132713,325.954538 C571.440147,325.954538 571.591798,321.642973 571.600623,317.242142 L571.600623,316.027903 C571.591692,311.533342 571.437707,307.273105 569.076612,307.273105 L535.696875,307.329205 L535.696875,294.089511 L563.354372,294.089511 C565.654488,294.089511 565.710588,289.994182 565.710588,285.898853 C565.710588,281.859624 565.654488,277.764295 563.354372,277.764295 L535.696875,277.764295 L535.696875,266.936918 L569.132713,266.936918 C571.440147,266.936918 571.591798,262.676681 571.600623,258.182121 L571.600623,256.961495 C571.591798,252.520494 571.440147,248.311586 569.132713,248.311586 L517.969149,248.367686 C517.127643,248.367686 516.454438,249.040891 516.454438,249.938497 L516.454438,324.327626 C516.454438,325.169132 517.127643,325.954538 517.969149,325.954538 L569.132713,325.954538 Z" id="BRINGYOURAPPETITEFORMORE" fill="#FFFFFF" fill-rule="nonzero" transform="translate(338.463580, 177.928025) rotate(-5.000000) translate(-338.463580, -177.928025) "></path>
                <g id="Group" transform="translate(429.909795, 338.634239)">
                    <g id="logo/white" transform="translate(90.326658, 15.510638) rotate(-5.000000) translate(-90.326658, -15.510638) ">
                        <g id="Group-6">
                            <mask id="mask-2" fill="white">
                                <use xlink:href="#path-1"></use>
                            </mask>
                            <g id="Clip-2"></g>
                            <path d="M79.9995333,14.3040743 C79.9950172,12.6362462 79.9950172,10.9661854 79.9995333,9.29835732 C78.5521399,9.28719381 77.1070045,9.29165922 75.6596111,9.29389192 C75.6573531,7.47424012 75.652837,5.65682103 75.6686432,3.83940193 C73.7560968,3.85056544 71.8367764,3.84610004 69.9264881,3.84163463 L69.9264881,9.29165922 L67.5465308,9.29165922 C67.5420147,10.96172 67.5465308,12.6317808 67.5465308,14.3040743 L69.9242301,14.3040743 L69.9242301,14.3085397 L69.9264881,14.3085397 C69.9332622,15.8312422 69.9242301,17.3561774 69.9242301,18.8811126 L69.921972,18.8811126 C69.921972,19.0083765 69.9242301,19.1334078 69.9242301,19.2606718 C69.9242301,19.356678 69.921972,19.4526842 69.921972,19.5464576 L69.9242301,19.5464576 C69.9242301,20.4350729 69.9242301,21.3236881 69.9377782,22.2123033 C69.9851967,24.6146902 70.8680841,27.1889952 72.9093378,28.6000626 C74.7044669,29.8727025 76.9421687,30.1116016 79.0895496,30.0825764 C77.3237748,28.2584592 76.2625035,25.5926135 75.837995,23.4536854 L75.8244468,23.3911698 L75.8176728,23.3286541 C75.7589641,22.8575541 75.6867074,22.1029009 75.6934814,21.3058265 C75.6821913,21.1361412 75.6709012,20.9664558 75.6641271,20.8012359 C75.6573531,20.3680918 75.6573531,19.9349477 75.6573531,19.5018036 C75.648321,17.7692272 75.6663852,16.0388834 75.6596111,14.3085397 C77.1024884,14.3107724 78.5521399,14.3107724 79.9995333,14.3040743" id="Fill-1" fill="#FFFFFF" mask="url(#mask-2)"></path>
                            <path d="M66.4717113,5.40452575 C66.4626792,3.73223225 66.4626792,2.05993876 66.4717113,0.387645271 C63.6401492,-0.0834547649 60.3773045,0.101859467 58.1057323,2.04430985 C56.0780267,3.85279814 55.6760984,6.72851779 55.7506132,9.29612462 L53.2713029,9.29612462 C53.2735609,10.9661854 53.2735609,12.6384789 53.2713029,14.3085397 L55.3667492,14.3085397 C55.4977145,14.3085397 55.630938,14.3085397 55.7641614,14.3085397 L55.7731935,14.3085397 L55.7731935,17.0480645 L55.7664194,17.0480645 C55.7709355,21.1517701 55.7709355,25.2510102 55.7641614,29.3547157 L58.4308878,29.3547157 C59.485385,29.3547157 60.5376242,29.3547157 61.5921214,29.352483 C61.5876053,25.1907272 61.5853473,21.0267388 61.5921214,16.864983 L61.5921214,14.3040743 L65.4804388,14.3040743 C65.4759227,12.6317808 65.4759227,10.96172 65.4804388,9.29165922 C65.4804388,9.29165922 61.6666362,9.29165922 61.5650251,9.29165922 C61.6169597,8.16414491 61.4837362,6.81559315 62.4230742,5.97833006 C63.5498282,5.04059539 65.123671,5.34647551 66.4717113,5.40452575" id="Fill-3" fill="#FFFFFF" mask="url(#mask-2)"></path>
                            <path d="M45.3456385,29.352483 L51.0381171,29.352483 C51.0065048,25.0589979 51.0742455,20.7610473 51.0065048,16.4653294 C50.9590863,13.9423766 49.99491,11.1470342 47.5675342,9.9637024 C44.1014673,8.25122028 40.037024,8.63747765 36.3383807,9.22691087 C36.3248325,11.0510281 36.3338646,12.877378 36.3316066,14.7037279 C38.7115639,14.1879738 41.3082916,13.6588235 43.6656686,14.5318099 C44.7608103,14.9069037 45.1717707,16.0500469 45.3388644,17.0860205 C43.6927649,16.8783792 42.0173111,16.4921218 40.3554054,16.8270271 C38.3864085,17.0659262 36.4309597,18.0215224 35.3177538,19.6960486 C33.5203667,22.364127 34.0306801,26.3941534 36.6951485,28.3232076 C39.192523,30.2098404 42.8256837,30.0066646 45.3659607,28.2986479 C45.3614447,28.5621067 45.3524126,29.0867915 45.3456385,29.352483 M45.106288,25.0143438 C43.6295403,25.4631168 41.8276371,25.963242 40.4750807,24.9428974 C39.2399415,24.0788419 39.3980032,21.9957313 40.7392695,21.31699 C42.105374,20.6002928 43.701797,20.8503554 45.1537065,21.1383739 C45.2869299,22.4266427 45.2756398,23.7283077 45.106288,25.0143438" id="Fill-4" fill="#FFFFFF" mask="url(#mask-2)"></path>
                            <path d="M15.5532695,2.14924683 C17.8745182,2.16487574 20.1957669,2.15371223 22.5192736,2.15371223 C19.1186894,6.68609646 15.79262,11.2809963 12.3717136,15.795519 C15.4177881,20.3122743 18.4141859,24.8513566 21.4873566,29.3480176 C19.080303,29.3636465 16.6709914,29.3413195 14.2639378,29.3614138 C11.5836633,25.3291547 8.89209862,21.294663 6.22311422,17.2512404 C6.21634015,21.2879649 6.21634015,25.3246893 6.22537224,29.3569484 C4.15024816,29.3480176 2.07512408,29.3547157 0,29.3547157 C0.00677407208,20.2899473 0.00677407208,11.2251788 0,2.16264304 C2.07512408,2.14924683 4.14799014,2.16264304 6.22311422,2.14924683 C6.2208562,6.42933578 6.2118241,10.7094247 6.22537224,14.9895137 C9.32338121,10.6982612 12.4507445,6.43156848 15.5532695,2.14924683" id="Fill-5" fill="#FFFFFF" mask="url(#mask-2)"></path>
                        </g>
                        <path d="M22.5969328,9.76687258 C24.6322466,9.75602653 26.679339,9.76687258 28.7193642,9.75602653 C28.7122971,11.0033229 28.7099414,12.2441116 28.6863846,13.482731 C29.6757733,11.4241498 31.8147374,10.0857466 34.1916259,9.73216521 C34.1963373,11.5759946 34.2198942,13.4241623 34.1657133,15.2679917 C31.5626788,15.5564968 28.886618,17.3482651 28.7923905,19.9404722 C28.7193642,23.0250903 28.7782564,26.1140468 28.7759007,29.1964956 C26.7146743,29.1964956 24.6534478,29.1964956 22.5969328,29.1921572 C22.6016442,22.7148931 22.6016442,16.2441367 22.5969328,9.76687258" id="Fill-7" fill="#FFFFFF"></path>
                        <g id="Group-15" transform="translate(78.783901, 1.216521)" fill="#FFFFFF">
                            <path d="M48.4807998,24.1947148 C47.6639655,24.5224034 47.5019488,24.6873776 46.5230978,25.0128062 C45.5442468,25.3450146 44.4011288,25.3450146 43.4222778,25.0128062 C40.323708,23.6997921 42.28141,18.9381384 42.28141,18.9381384 C55.0064733,15.8171875 53.2130382,8.91764848 49.7859345,8.58995993 C47.6639655,8.58995993 39.9974243,8.91764848 36.4083039,17.7878386 C35.9177532,19.1031127 32.4906495,28.4659656 40.159441,29.1213427 C41.7908594,29.1213427 43.5865447,28.9586284 45.2179631,28.1337572 C46.6873647,27.3156658 47.8282325,26.3280803 48.8048333,25.0128062 C49.6239178,23.5393377 48.4807998,24.1947148 48.4807998,24.1947148 M46.6873647,11.0555338 C47.6639655,11.3832224 45.2179631,16.3121102 45.2179631,16.3121102 C44.2391121,16.6375388 43.2580108,16.9674873 42.6054435,16.9674873 C42.9339774,16.3121102 44.7274125,10.0679483 46.6873647,11.0555338" id="Fill-8"></path>
                            <path d="M78.1748645,26.0003917 C78.0105975,25.8354175 77.6843138,25.8354175 77.5222971,25.6727032 C76.5434461,25.0150662 77.3602804,23.2093892 77.5222971,22.2218037 L80.4588502,11.7109109 C80.6231171,11.0532739 81.7639849,7.60463435 77.1960134,8.26227138 C73.2806093,8.91764848 70.506073,11.3832224 70.506073,11.3832224 C70.8323567,10.3978968 71.1586403,8.91764848 70.506073,8.58995993 C69.6937392,8.26227138 64.9592505,9.74025975 63.8183828,10.7255853 C63.4898489,10.7255853 63.0015485,11.2182481 63.4898489,11.7109109 C63.9803995,12.3685479 64.1424162,12.8612107 63.8183828,14.0115105 C63.1635652,15.9821617 61.2058631,22.8794408 60.7175628,24.1924549 C60.2270121,25.5077289 59.5744448,27.9710429 60.7175628,28.7936542 C61.5343971,29.4490313 64.9592505,27.9710429 65.4475509,27.6433543 C65.9381015,27.4783801 66.4264019,27.1506916 66.5929191,26.9857173 C67.2432362,26.3280803 66.2643852,26.0003917 67.2432362,22.5517522 C67.2432362,22.386778 68.384104,18.9381384 69.2009383,15.9821617 C69.8535056,13.5165878 72.1374914,12.3685479 72.9543257,12.2035737 C74.2594604,12.0385995 73.9331767,13.1888993 73.7689097,14.0115105 C72.628042,17.6251243 71.3229073,23.044415 70.8323567,24.3574291 C70.3463065,25.6727032 69.527222,28.2987315 70.8323567,28.7936542 C71.9754746,29.6140055 77.1960134,27.3134059 77.6843138,26.9857173 C78.6654151,26.3280803 78.6654151,26.0003917 78.1748645,26.0003917" id="Fill-10"></path>
                            <path d="M58.2693101,26.0003917 C57.9430264,25.8354175 57.7810097,25.8354175 57.6167427,25.6727032 C56.6401419,25.0150662 57.2927093,23.2093892 57.6167427,22.2218037 L60.7175628,11.7109109 C60.8795795,10.5606111 61.5343971,9.08262272 60.7175628,8.58995993 C59.7387117,8.26227138 55.0064733,9.74025975 53.8633554,10.7255853 C53.7013386,10.7255853 53.210788,11.2182481 53.7013386,11.7109109 C54.189639,12.3685479 54.189639,12.8612107 53.8633554,14.0115105 C53.3773052,15.9821617 51.0910692,23.044415 50.6005186,24.3574291 C50.1122182,25.6727032 49.4574006,28.2987315 50.9290525,28.7936542 C52.0699203,29.6140055 56.9641754,27.4783801 57.6167427,26.9857173 C58.7598607,26.4930545 58.7598607,26.0003917 58.2693101,26.0003917" id="Fill-11"></path>
                            <path d="M57.2904591,6.12664598 C57.6167427,6.78202309 60.5532958,5.47126887 62.0226975,4.64865761 C62.1869644,4.48142345 62.8395318,3.99102058 63.0015485,3.49835779 C63.3278321,2.34805798 63.4898489,1.85539519 63.6541158,1.03504384 C63.8161325,0.70735529 63.8161325,0.2146925 63.3278321,0.0474583422 C62.6752648,-0.115255974 58.7576105,0.377406816 57.7832599,2.02036942 C57.454726,2.67800645 56.311608,5.79669751 57.2904591,6.12664598" id="Fill-12"></path>
                            <path d="M101.016972,17.6251243 C100.526421,15.8149275 97.5898682,15.3245247 96.4490005,16.3121102 C95.7964331,16.9697472 95.4723997,18.2827613 95.6321662,18.60819 C98.4067025,17.7878386 98.8950029,20.2511526 98.4067025,21.2364782 C97.4278515,22.7167264 97.1015678,23.2093892 95.7964331,23.2093892 L87.1487906,23.2093892 C86.9845237,23.0421551 86.822507,22.8794408 87.1487906,22.5540121 C87.637091,21.8963751 96.1227168,10.2306626 96.4490005,9.74251967 C96.6110172,9.41031127 97.1015678,8.59221985 95.9584498,8.59221985 L86.4962233,8.59221985 C85.5173723,8.59221985 85.0268216,8.91764848 84.2122376,9.74251967 C83.5596702,10.562871 82.7428359,13.026185 82.2567857,14.6668876 C82.2567857,14.6668876 82.2567857,15.3245247 83.2333865,14.5019134 C83.3954033,14.3391991 83.7216869,13.683822 84.2122376,13.683822 L89.9210767,13.683822 C91.7167621,13.683822 82.2567857,22.7167264 79.3157322,27.4783801 C78.8274318,28.3009914 79.6420159,28.3009914 80.1325665,28.3009914 L92.5335964,28.3009914 C95.6321662,28.3009914 95.1438658,28.7913942 96.7752841,26.4953145 C96.7752841,26.4953145 101.831556,19.9212041 101.016972,17.6251243" id="Fill-13"></path>
                            <path d="M32.8169332,23.2093892 L36.2440369,9.90523398 C38.5280226,1.85539519 39.8331573,1.52996655 40.6477414,0.70735529 L35.2651859,0.70735529 C33.3097341,0.70735529 31.8380822,3.49835779 31.5117985,5.30629464 L29.2278128,13.683822 L24.3335577,13.683822 C24.3335577,13.683822 27.2701108,3.00343508 27.5963944,1.85539519 C27.7584111,1.36499232 27.7584111,0.70735529 26.7795601,0.70735529 C26.6175434,0.70735529 16.3407328,0.377406816 13.0756458,1.52996655 C11.6062441,2.02262934 9.48652537,3.33564348 8.83620825,5.30629464 C8.34340739,6.45433453 7.69084004,8.59221985 9.15799146,12.5335222 C9.32225842,13.026185 9.64854209,13.3516136 9.81280904,13.5165878 C10.3011094,13.8442764 14.5427972,13.1911592 14.3807805,13.1911592 C14.7070642,13.1911592 14.8690809,13.026185 14.5427972,12.3685479 C14.2165135,11.5459367 13.2399127,10.0679483 13.0756458,8.59221985 C12.4230784,2.84298069 16.5004993,2.02262934 17.1530666,1.85539519 C18.1319176,1.69042095 18.9510022,1.69042095 19.927603,1.85539519 C20.2538866,1.85539519 21.0684707,2.02262934 21.2327377,2.34805798 C21.5590213,3.00343508 21.0684707,4.15599482 20.7466875,5.47126887 C20.4181536,6.45433453 17.6458675,16.6375388 16.8267829,19.4308012 C16.3407328,21.5641667 14.2165135,26.1631061 12.0967948,26.8207431 C11.6062441,26.9857173 10.9536768,26.9857173 10.3011094,26.8207431 C9.64854209,26.6580288 8.99597474,26.3280803 8.50542411,26.0003917 C7.20028941,24.6873776 6.38570534,22.0590894 6.22143839,20.0884383 C6.05942167,17.6251243 6.54772206,15.8149275 6.05942167,15.8149275 C5.20658365,15.8149275 2.36679056,16.947148 1.21017119,17.7810589 C1.21017119,17.7810589 1.20792096,17.7833188 1.20567073,17.7833188 C0.737622424,18.1223069 0.708369405,18.1878447 0.708369405,18.1901046 C0.685867082,18.2127038 0.667865224,18.2330431 0.652113599,18.2556423 C0.352832711,18.7731642 0.373084801,20.6082201 0.510348968,21.7291409 C1.0008996,24.1924549 2.30603429,26.9857173 4.26373634,28.3009914 C9.48652537,31.9123452 18.6224683,25.3450146 19.6013193,24.6873776 C21.0684707,23.3743635 22.049572,21.5641667 22.3758556,20.2534125 C22.864156,18.60819 23.6809903,15.8149275 23.6809903,15.8149275 L28.5752455,15.8149275 C28.5752455,15.8149275 26.6175434,23.2093892 26.1269928,25.0150662 C25.6386924,26.4953145 25.3124087,28.9586284 26.6175434,28.7913942 C31.5117985,28.7913942 33.4695006,26.9857173 33.6315173,26.8207431 C33.7957842,26.6580288 33.7957842,26.3280803 33.6315173,26.1631061 C33.3097341,26.0003917 32.1643659,24.8500919 32.8169332,23.2093892" id="Fill-14"></path>
                        </g>
                    </g>
                </g>
            </g>
        </g>
    </g>
</svg>